<?xml version="1.0" encoding="utf-8"?>
<!-- Generator: Adobe Illustrator 25.0.1, SVG Export Plug-In . SVG Version: 6.00 Build 0)  -->
<svg version="1.0" id="katman_1" xmlns="http://www.w3.org/2000/svg" xmlns:xlink="http://www.w3.org/1999/xlink" x="0px" y="0px"
	 viewBox="0 0 560 400" style="enable-background:new 0 0 560 400;" xml:space="preserve">
<style type="text/css">
	.st0{fill:#1B2143;}
	.st1{fill:#2CA6E0;}
	.st2{fill-rule:evenodd;clip-rule:evenodd;fill:#2CA6E0;}
</style>
<g transform="matrix(.151548 0 0 .151548 101.19 146.344)">
	<path class="st0" d="M806.8,135.9v245.5H562.9V167.6c0-17.6-14.3-31.8-31.8-31.8h-82.6v587.6c0,17.6,14.3,31.8,31.8,31.8h82.6
		V481.1h244v242.2c-0.2,17.6,13.8,32.1,31.3,32.3h83.1v-588c0-17.6-14.3-31.8-31.8-31.8h-82.7V135.9z M1291.1,289.5V584
		c0.2,26.8-13.8,51.7-36.9,65.5c-64.6,37.3-131.6-9.5-131.6-70.9V321.3c0-17.6-14.3-31.8-31.8-31.8h-82.6v299.7
		c0.2,96.6,78.4,174.7,175,175.2h46.9c96.7-0.2,175.1-78.6,175.3-175.3V321.3c0-17.6-14.3-31.8-31.8-31.8H1291.1z"/>
	<path class="st1" d="M2540.2,755.6h82.6V338.4c0-17.6-14.3-31.8-31.8-31.8h-82.6v417c-0.1,17.6,14,31.9,31.6,32.1H2540.2z"/>
	
		<ellipse transform="matrix(0.3827 -0.9239 0.9239 0.3827 1400.1785 2492.9602)" class="st2" cx="2565.6" cy="198.7" rx="9.7" ry="9.7"/>
	<g>
		<path class="st0" d="M1700.6,289.2c-119.8,0-217.8,85.6-217.8,205.4v64.7c0,119.8,98,204.9,217.8,204.9s217.8-85.1,217.8-204.9
			v-64.7C1918.5,374.9,1820.5,289.2,1700.6,289.2z M1803.5,567.1c0,56.6-46.3,94.4-103.1,94.4s-103-37.7-103-94.4v-80.8
			c0-56.6,46.3-94.4,103-94.4s103.1,37.7,103.1,94.4V567.1z"/>
		<path class="st1" d="M2213.5,289.2c-35.9-0.2-71.3,7.9-103.6,23.5V168.2c0-17.6-14.3-31.8-31.8-31.8h-82.6v423
			c0,119.8,98,204.9,217.8,204.9c119.8,0,217.8-85.1,217.8-204.9v-64.7C2431.3,374.9,2333.6,289.2,2213.5,289.2z M2316.6,567.1
			c0,56.6-46.3,94.4-103.1,94.4c-56.6,0-103-37.7-103-94.4v-80.8c0-56.6,46.3-94.4,103-94.4s103.1,37.7,103.1,94.4V567.1z"/>
		<path class="st0" d="M102.8,186.7C102.8,61.8,42-45.7-4.3-80.6c0,0-3.6-2-3.2,3.1C-11.3,163.7-134.6,229-202.3,317
			c-156.3,203.2-11.1,426,137.1,467.1c82.6,23.1-19.2-40.8-32.3-175.6C-113.6,445.9,102.8,321.6,102.8,186.7L102.8,186.7z"/>
		<path class="st1" d="M173.8,268.8c-1-0.6-2.3-1.1-3.2,0.5c-2.6,30.3-33.5,95.2-72.9,154.9C-35.5,626.5,40.4,724,83.1,776.5
			c24.8,30.3,0,0,61.9-31.1c76.5-46.4,126.2-126.8,133.5-216C290.8,385.7,204.5,295.1,173.8,268.8z"/>
	</g>
</g>
</svg>
